/* XPM */
static char * C:\Users\dan\Desktop\Isracoin Logos\qt_icons\isracoin16_xpm[] = {
"16 16 179 2",
"  	c None",
". 	c #CDC8BF",
"+ 	c #C2BEB8",
"@ 	c #C4BFBA",
"# 	c #CBC6BD",
"$ 	c #BCBDBF",
"% 	c #8E9CB4",
"& 	c #587BB8",
"* 	c #6687C1",
"= 	c #6487C1",
"- 	c #597DBA",
"; 	c #8B9BB4",
"> 	c #B8B9BB",
", 	c #D9D8D5",
"' 	c #9EA6B5",
") 	c #849CC5",
"! 	c #CAC6C1",
"~ 	c #C8C5C1",
"{ 	c #A6A5B8",
"] 	c #B6B8C9",
"^ 	c #C4C2BE",
"/ 	c #C7C3BD",
"( 	c #89A0C6",
"_ 	c #A5ADB9",
": 	c #C0BEB9",
"< 	c #A3ADBD",
"[ 	c #B5BECF",
"} 	c #D9D6D0",
"| 	c #D3D0CC",
"1 	c #CDCBC9",
"2 	c #455AF8",
"3 	c #5266F6",
"4 	c #CCC8BE",
"5 	c #C9C6C0",
"6 	c #AFB6C3",
"7 	c #A5B0C2",
"8 	c #D9DADB",
"9 	c #9AB1D7",
"0 	c #F0EBDB",
"a 	c #EFEADC",
"b 	c #EFEBD9",
"c 	c #959BD2",
"d 	c #A1A9E9",
"e 	c #7C87E3",
"f 	c #A2A7DB",
"g 	c #DDD8C9",
"h 	c #E0DCCC",
"i 	c #E1DCCD",
"j 	c #83A0D0",
"k 	c #C0C3C9",
"l 	c #ABBDD9",
"m 	c #F8F5F0",
"n 	c #3E53EE",
"o 	c #4D61F0",
"p 	c #4A5EEE",
"q 	c #4258FE",
"r 	c #5567F0",
"s 	c #586BF1",
"t 	c #4157FA",
"u 	c #4E61EF",
"v 	c #4F62ED",
"w 	c #3E53F0",
"x 	c #F5EFE8",
"y 	c #A8C0E5",
"z 	c #FFFFFF",
"A 	c #6F95D4",
"B 	c #ACB4F2",
"C 	c #A5B0FE",
"D 	c #B1B7EC",
"E 	c #B4BCFA",
"F 	c #EFF0FA",
"G 	c #EEEEF6",
"H 	c #A5ADF3",
"I 	c #BFC6FA",
"J 	c #7D89E4",
"K 	c #D9DDFA",
"L 	c #FFFFFA",
"M 	c #9CBAEA",
"N 	c #F2EEE5",
"O 	c #F4F5F5",
"P 	c #92B3EA",
"Q 	c #B5BBF1",
"R 	c #5063F5",
"S 	c #4D62FC",
"T 	c #9DA7F3",
"U 	c #A0A9F4",
"V 	c #A2ACF3",
"W 	c #4D61F9",
"X 	c #B0B8EC",
"Y 	c #9BBAEB",
"Z 	c #F8F4ED",
"` 	c #F3F4F6",
" .	c #96B6EB",
"..	c #BDC3ED",
"+.	c #5568F6",
"@.	c #8A97F4",
"#.	c #6073F3",
"$.	c #5F71F1",
"%.	c #C8CFFF",
"&.	c #4E62F7",
"*.	c #B8BEE7",
"=.	c #9DBBEC",
"-.	c #FFFFF6",
";.	c #6F97D7",
">.	c #FAF9F6",
",.	c #B2B8E4",
"'.	c #97A4FF",
").	c #B2B9EE",
"!.	c #AEB8F9",
"~.	c #E4E8FF",
"{.	c #E7EAFF",
"].	c #B3BAF0",
"^.	c #B9C1F5",
"/.	c #7886EF",
"(.	c #E5E8FE",
"_.	c #A2BEEE",
":.	c #ECE8E1",
"<.	c #8AA2CB",
"[.	c #D9D7D1",
"}.	c #4E62F8",
"|.	c #5D6EF0",
"1.	c #5C6DF1",
"2.	c #435AFD",
"3.	c #6272EB",
"4.	c #6273EC",
"5.	c #455AF9",
"6.	c #5F71F2",
"7.	c #5F70EE",
"8.	c #5266FD",
"9.	c #BAD0F4",
"0.	c #A7A9AE",
"a.	c #93A2BA",
"b.	c #C8C4B7",
"c.	c #CEC9BD",
"d.	c #D9D4C4",
"e.	c #8A93D8",
"f.	c #A9ADDC",
"g.	c #7B84D4",
"h.	c #A3AAE7",
"i.	c #F3F0E1",
"j.	c #FBF8EB",
"k.	c #FFFCEF",
"l.	c #ABC3E8",
"m.	c #C1C6CF",
"n.	c #7587A6",
"o.	c #959AA1",
"p.	c #A4A19E",
"q.	c #ABA8A5",
"r.	c #AFACAC",
"s.	c #445AFD",
"t.	c #4D61FB",
"u.	c #BFBCB3",
"v.	c #C1BEBB",
"w.	c #C6C3BF",
"x.	c #CAC9C9",
"y.	c #B5C1D6",
"z.	c #6D6A67",
"A.	c #6F819F",
"B.	c #6B81A7",
"C.	c #9D988F",
"D.	c #A09D99",
"E.	c #888AAA",
"F.	c #9B9CB7",
"G.	c #A6A39F",
"H.	c #A8A39A",
"I.	c #798EB1",
"J.	c #919EB4",
"K.	c #6F7784",
"L.	c #6D83A8",
"M.	c #6782B1",
"N.	c #6B84AF",
"O.	c #6E87B3",
"P.	c #6C87B3",
"Q.	c #758AAD",
"R.	c #777D89",
"S.	c #817B71",
"T.	c #88847B",
"U.	c #88837B",
"V.	c #817B72",
"            . + @ #             ",
"        $ % & * = - ; >         ",
"    , ' ) ! ~ { ] ^ / ( _ :     ",
"    < [ } | 1 2 3 4 ~ 5 6 7     ",
"  8 9 0 a b c d e f g h i j k   ",
"  l m n o p q r s t u v w x y   ",
"z A z B C D E F G H I J K L M N ",
"O P z z Q R S T U V W X z z Y Z ",
"`  .z z ..+.@.#.$.%.&.*.z z =.Z ",
"-.;.>.,.'.).!.~.{.].^./.(.z _.:.",
"  <.[.}.|.1.2.3.4.5.6.7.8.z 9.  ",
"  0.a.b.c.d.e.f.g.h.i.j.k.l.m.  ",
"    n.o.p.q.r.s.t.u.v.w.x.y.    ",
"    z.A.B.C.D.E.F.G.H.I.J.      ",
"        K.L.M.N.O.P.Q.R.        ",
"            S.T.U.V.            "};
