/* XPM */
static char * C:\Users\dan\Desktop\Isracoin Logos\qt_icons\bitcoin32_xpm[] = {
"32 32 603 2",
"  	c None",
". 	c #CECCC9",
"+ 	c #CDCCC9",
"@ 	c #CDCBC8",
"# 	c #CCCAC7",
"$ 	c #DDDBD9",
"% 	c #C8C5C2",
"& 	c #B9B6B1",
"* 	c #BAB6B1",
"= 	c #BBB7B1",
"- 	c #B9B5B1",
"; 	c #BBB7B3",
"> 	c #BAB7B2",
", 	c #BBB8B3",
"' 	c #BAB6B2",
") 	c #C5C3C0",
"! 	c #CBC9C6",
"~ 	c #D6D4D2",
"{ 	c #C0BDB9",
"] 	c #BFBDB9",
"^ 	c #C3C0BC",
"/ 	c #7A869B",
"( 	c #3C64A6",
"_ 	c #1C55B4",
": 	c #1E5EC8",
"< 	c #1F5EC8",
"[ 	c #1C55B5",
"} 	c #3D65A9",
"| 	c #7B889F",
"1 	c #BEBBB6",
"2 	c #BFBCB8",
"3 	c #BEBBB7",
"4 	c #CAC7C4",
"5 	c #E9E8E7",
"6 	c #C7C4C0",
"7 	c #C7C3BE",
"8 	c #9C9FA7",
"9 	c #2B61BA",
"0 	c #517DC6",
"a 	c #A5B0C4",
"b 	c #B3B6BD",
"c 	c #BABABB",
"d 	c #C1BFBD",
"e 	c #C2C0BF",
"f 	c #B4B9BF",
"g 	c #9FACC0",
"h 	c #517DC7",
"i 	c #2C64C2",
"j 	c #9FA4AB",
"k 	c #C4C0BB",
"l 	c #C1BFBB",
"m 	c #C6C3BF",
"n 	c #C6C0B9",
"o 	c #406CB7",
"p 	c #6288C8",
"q 	c #B5B9C1",
"r 	c #CEC9C2",
"s 	c #C7C4BF",
"t 	c #C8C6C2",
"u 	c #9497B9",
"v 	c #BDBCC4",
"w 	c #C9C6C2",
"x 	c #C4C1BD",
"y 	c #CBC6BE",
"z 	c #BABEC5",
"A 	c #658BCC",
"B 	c #4472BD",
"C 	c #BAB8B6",
"D 	c #C2BFBB",
"E 	c #DFDEDB",
"F 	c #CAC7C2",
"G 	c #AEB0B6",
"H 	c #285FBC",
"I 	c #AEB8CA",
"J 	c #D0CBC4",
"K 	c #C9C7C3",
"L 	c #CCC9C5",
"M 	c #CBC8C4",
"N 	c #C4C0B6",
"O 	c #4255E1",
"P 	c #5C6EF2",
"Q 	c #C4C2BE",
"R 	c #C1BEBA",
"S 	c #C7C3BC",
"T 	c #A2AEC3",
"U 	c #3168C5",
"V 	c #ACB1BB",
"W 	c #BAB8B4",
"X 	c #EAE9E7",
"Y 	c #CFCDC8",
"Z 	c #B3B6BC",
"` 	c #2763C8",
" .	c #D8D4CC",
"..	c #D3D1CC",
"+.	c #D1CFCA",
"@.	c #CFCCC8",
"#.	c #D0CDC9",
"$.	c #747CC2",
"%.	c #435AFF",
"&.	c #4359FD",
"*.	c #B2B3C8",
"=.	c #C7C5C0",
"-.	c #C8C5C1",
";.	c #C5C2BE",
">.	c #C3C1BD",
",.	c #2D68CC",
"'.	c #B5B7BC",
").	c #C7C4C1",
"!.	c #D8D6D2",
"~.	c #D1CDC5",
"{.	c #2961BE",
"].	c #DCD8D0",
"^.	c #D9D6D2",
"/.	c #DCD9D5",
"(.	c #DAD8D4",
"_.	c #D8D5D1",
":.	c #D7D4D0",
"<.	c #C9C5B9",
"[.	c #3F54F0",
"}.	c #5568F4",
"|.	c #4259FD",
"1.	c #455BFC",
"2.	c #C7C5C3",
"3.	c #CAC7C3",
"4.	c #CBC9C4",
"5.	c #C4C3C4",
"6.	c #2665D0",
"7.	c #CAC8C5",
"8.	c #C6C4C0",
"9.	c #E7E5E2",
"0.	c #E5E1DB",
"a.	c #406FBD",
"b.	c #C5CDDB",
"c.	c #DFDCD7",
"d.	c #E0DDD9",
"e.	c #E2DFDB",
"f.	c #DEDCD8",
"g.	c #DDDBD7",
"h.	c #DEDAD7",
"i.	c #5C6BD8",
"j.	c #3C53FF",
"k.	c #B7BBDF",
"l.	c #979BC5",
"m.	c #445AFD",
"n.	c #9AA0D9",
"o.	c #CECBC5",
"p.	c #CECBC7",
"q.	c #CDCAC6",
"r.	c #D1CECA",
"s.	c #D1CEC9",
"t.	c #B9BFC9",
"u.	c #386EC8",
"v.	c #D7D4CE",
"w.	c #B6B3B0",
"x.	c #E9E6E2",
"y.	c #A9B2C0",
"z.	c #799CD7",
"A.	c #F0ECE3",
"B.	c #F2EFE1",
"C.	c #EFEBDE",
"D.	c #F1EDDF",
"E.	c #EFECDE",
"F.	c #EFEBDD",
"G.	c #EEEADD",
"H.	c #C0BEBF",
"I.	c #4358FA",
"J.	c #818EF6",
"K.	c #E8E3CF",
"L.	c #DFDCCF",
"M.	c #4F63F2",
"N.	c #4057FE",
"O.	c #D0CED0",
"P.	c #DEDBCD",
"Q.	c #DDD9CC",
"R.	c #E0DDCF",
"S.	c #E4E0D2",
"T.	c #DDD9D4",
"U.	c #6D94D5",
"V.	c #AFBCD1",
"W.	c #DAD7D2",
"X.	c #FAF8F6",
"Y.	c #F6F4F0",
"Z.	c #2B64C4",
"`.	c #E9EAED",
" +	c #BFC2D7",
".+	c #3247E3",
"++	c #374BE1",
"@+	c #3D52F2",
"#+	c #4154EC",
"$+	c #384CE1",
"%+	c #4458F0",
"&+	c #3B50EC",
"*+	c #374CE1",
"=+	c #384DE1",
"-+	c #384CE2",
";+	c #3B4FE1",
">+	c #E4E2DF",
",+	c #EEEAE2",
"'+	c #3C74D2",
")+	c #F7F2EA",
"!+	c #BAB8B5",
"~+	c #FDFCF9",
"{+	c #F5F4F3",
"]+	c #799FDD",
"^+	c #FFFEF8",
"/+	c #FFFFF6",
"(+	c #7280E5",
"_+	c #5266FD",
":+	c #5B6EFC",
"<+	c #5C6FFC",
"[+	c #495EF7",
"}+	c #576BFD",
"|+	c #5A6DFC",
"1+	c #4E62FA",
"2+	c #5064FC",
"3+	c #485DFB",
"4+	c #4158FD",
"5+	c #95A1F8",
"6+	c #F3F1ED",
"7+	c #F4F2EE",
"8+	c #5486DA",
"9+	c #C9D6E9",
"0+	c #DEDDD8",
"a+	c #FFFFFF",
"b+	c #849DC4",
"c+	c #DFE9F9",
"d+	c #FFFFFE",
"e+	c #FFFFFC",
"f+	c #EFF1F8",
"g+	c #5569FB",
"h+	c #FFFFF9",
"i+	c #F0EEE9",
"j+	c #3C51F2",
"k+	c #F7F8FB",
"l+	c #FEFDFA",
"m+	c #FCFBF8",
"n+	c #FCFBF7",
"o+	c #F9F8F3",
"p+	c #EBE8E4",
"q+	c #3F56FB",
"r+	c #6A7BFB",
"s+	c #FFFDF6",
"t+	c #FDFCF7",
"u+	c #485CF2",
"v+	c #5065FE",
"w+	c #FFFFF4",
"x+	c #FBFAF7",
"y+	c #CFDCF0",
"z+	c #8DAEE6",
"A+	c #EEEEEA",
"B+	c #2A5EB5",
"C+	c #F2F6FD",
"D+	c #99A2E5",
"E+	c #4056FE",
"F+	c #BEC6FE",
"G+	c #B8BDE2",
"H+	c #AAB2EB",
"I+	c #C2C6DF",
"J+	c #AEB5EA",
"K+	c #AEB5E9",
"L+	c #AEB4E8",
"M+	c #AFB6E9",
"N+	c #A2AAE8",
"O+	c #A0A8E7",
"P+	c #FFFFF8",
"Q+	c #6672CC",
"R+	c #3F56FE",
"S+	c #C5CCFD",
"T+	c #FEFEFB",
"U+	c #FFFEFB",
"V+	c #FEFEFC",
"W+	c #5F8FDF",
"X+	c #FAFAFA",
"Y+	c #1F60CD",
"Z+	c #FCFDFF",
"`+	c #FFFFFD",
" @	c #495EFA",
".@	c #C3C9F5",
"+@	c #5B6DEB",
"@@	c #4B60FA",
"#@	c #3E55FB",
"$@	c #4D62FF",
"%@	c #6073FF",
"&@	c #5F72FF",
"*@	c #5D70FF",
"=@	c #6174FF",
"-@	c #3F56FF",
";@	c #6678F7",
">@	c #C4CAF9",
",@	c #6778FB",
"'@	c #5589DE",
")@	c #7F7F7F",
"!@	c #F5F6F8",
"~@	c #2063D3",
"{@	c #B1B7E9",
"]@	c #C6CCF6",
"^@	c #5468F9",
"/@	c #4D62FA",
"(@	c #4157FD",
"_@	c #707FF5",
":@	c #95A0EE",
"<@	c #96A1ED",
"[@	c #D1D4ED",
"}@	c #95A0EF",
"|@	c #949FEF",
"1@	c #97A1ED",
"2@	c #4459F4",
"3@	c #5F72FE",
"4@	c #E5E6F0",
"5@	c #E8EAF8",
"6@	c #5286DD",
"7@	c #8C8C8C",
"8@	c #F4F6F8",
"9@	c #C1C4D6",
"0@	c #CDD1F0",
"a@	c #596BED",
"b@	c #5C6FFD",
"c@	c #A9B3FA",
"d@	c #7080FB",
"e@	c #7282FA",
"f@	c #4157FB",
"g@	c #5E71FB",
"h@	c #455BFD",
"i@	c #6376FE",
"j@	c #7686FE",
"k@	c #455BFB",
"l@	c #5D70FA",
"m@	c #F0F1FA",
"n@	c #F1F2FA",
"o@	c #5487DD",
"p@	c #8B8B8B",
"q@	c #F9F9FA",
"r@	c #2062D1",
"s@	c #FEFEFF",
"t@	c #4C60F2",
"u@	c #EDEFFC",
"v@	c #6777EE",
"w@	c #465CFD",
"x@	c #465BFD",
"y@	c #697AF9",
"z@	c #C1C8FF",
"A@	c #4E61EB",
"B@	c #596DFE",
"C@	c #8391F6",
"D@	c #598CDE",
"E@	c #757575",
"F@	c #235EC0",
"G@	c #F5F8FB",
"H@	c #FFFEFD",
"I@	c #9EA4CB",
"J@	c #4258FD",
"K@	c #ADB7FD",
"L@	c #E0E3FC",
"M@	c #E1E5FF",
"N@	c #DEE2FF",
"O@	c #D5D9FF",
"P@	c #D7DCFF",
"Q@	c #E9EBF8",
"R@	c #F2F4FF",
"S@	c #E8E8EB",
"T@	c #E4E7FF",
"U@	c #DBDFFF",
"V@	c #626FD6",
"W@	c #3D54FE",
"X@	c #D9DDFE",
"Y@	c #6593E1",
"Z@	c #F5F3ED",
"`@	c #6C8EC8",
" #	c #DDE2EB",
".#	c #F5F3EE",
"+#	c #F5F3EF",
"@#	c #EFEEED",
"##	c #4157F6",
"$#	c #4B61FF",
"%#	c #F3F3F4",
"&#	c #4154E7",
"*#	c #4F62EC",
"=#	c #F2F1EA",
"-#	c #4055EF",
";#	c #6070E8",
">#	c #FCFCFA",
",#	c #495EFB",
"'#	c #6577FC",
")#	c #E7EFFA",
"!#	c #8AADE8",
"~#	c #EAE9E8",
"{#	c #DDDAD6",
"]#	c #C6CACF",
"^#	c #87A5D7",
"/#	c #E6E2DC",
"(#	c #E8E5DD",
"_#	c #777FC2",
":#	c #717EE8",
"<#	c #838CD7",
"[#	c #858FD9",
"}#	c #5B6AE0",
"|#	c #7E89E4",
"1#	c #838DD8",
"2#	c #838DD9",
"3#	c #838ED9",
"4#	c #838EDA",
"5#	c #5666DD",
"6#	c #4259FF",
"7#	c #6A79ED",
"8#	c #848EDB",
"9#	c #848FDC",
"0#	c #5265EF",
"a#	c #3D54FD",
"b#	c #B6BEFD",
"c#	c #6F9AE3",
"d#	c #CFDEF6",
"e#	c #D5D5D4",
"f#	c #BDBBB7",
"g#	c #2967D0",
"h#	c #D0CDC8",
"i#	c #B3B2BB",
"j#	c #455CFF",
"k#	c #495EFC",
"l#	c #495EFD",
"m#	c #495FFD",
"n#	c #485DFD",
"o#	c #465CFC",
"p#	c #475DFD",
"q#	c #4A5FFD",
"r#	c #596CFC",
"s#	c #FFFFFB",
"t#	c #437CDA",
"u#	c #979796",
"v#	c #BCB9B5",
"w#	c #708CBA",
"x#	c #7E97C2",
"y#	c #C2C0BD",
"z#	c #C8C5C3",
"A#	c #D1CFCC",
"B#	c #D4D2CF",
"C#	c #D9D7D3",
"D#	c #B8BAC9",
"E#	c #8892EA",
"F#	c #DAD8D2",
"G#	c #4758E3",
"H#	c #CFD1E6",
"I#	c #ECEAE7",
"J#	c #F1EFED",
"K#	c #F6F5F2",
"L#	c #F7F7F4",
"M#	c #F9F8F5",
"N#	c #F9F8F6",
"O#	c #FBFAF4",
"P#	c #A6BFE8",
"Q#	c #C1D2EC",
"R#	c #E0DFDA",
"S#	c #94918E",
"T#	c #B3AEA6",
"U#	c #326BCB",
"V#	c #AAAAAA",
"W#	c #B4B1AE",
"X#	c #B9B7B3",
"Y#	c #BBB8B4",
"Z#	c #5668E9",
"`#	c #B9B9CB",
" $	c #999BB1",
".$	c #8E99EC",
"+$	c #D8D5CD",
"@$	c #E5E3DF",
"#$	c #E6E4DF",
"$$	c #E9E7E2",
"%$	c #EDEBE7",
"&$	c #EFEDE9",
"*$	c #E9EAEA",
"=$	c #3D78D8",
"-$	c #EFECE8",
";$	c #93928F",
">$	c #999694",
",$	c #8891A0",
"'$	c #346DCB",
")$	c #ADA69C",
"!$	c #A8A5A2",
"~$	c #A9A6A4",
"{$	c #ACA9A5",
"]$	c #AEABA7",
"^$	c #B9B6B2",
"/$	c #AAA9AC",
"($	c #4258FB",
"_$	c #5B6BE8",
":$	c #4155EB",
"<$	c #4258FF",
"[$	c #BFBDBF",
"}$	c #D3D0CC",
"|$	c #477DD7",
"1$	c #D7D9DC",
"2$	c #B1AFAB",
"3$	c #94918D",
"4$	c #6F84A7",
"5$	c #3D70C6",
"6$	c #9F9A95",
"7$	c #9D9B98",
"8$	c #9F9C99",
"9$	c #A2A09D",
"0$	c #ACA9A6",
"a$	c #B0ADA8",
"b$	c #6974CF",
"c$	c #4359FF",
"d$	c #9CA2D8",
"e$	c #B6B3AE",
"f$	c #B4B0AD",
"g$	c #B7B4B0",
"h$	c #BDBAB6",
"i$	c #C5C1BC",
"j$	c #5A86D0",
"k$	c #A5B5CE",
"l$	c #666463",
"m$	c #928F8A",
"n$	c #7082A0",
"o$	c #336AC9",
"p$	c #909193",
"q$	c #969390",
"r$	c #999693",
"s$	c #9E9C99",
"t$	c #A19E9B",
"u$	c #A5A29F",
"v$	c #A39F97",
"w$	c #4358F9",
"x$	c #5366F7",
"y$	c #AEACA8",
"z$	c #ACAAA6",
"A$	c #AAA7A4",
"B$	c #A9A6A3",
"C$	c #AAA7A3",
"D$	c #A5A5A5",
"E$	c #3F74CB",
"F$	c #97A7C2",
"G$	c #B2AFAC",
"H$	c #3E3E3C",
"I$	c #555351",
"J$	c #8D8B89",
"K$	c #85888D",
"L$	c #2867D3",
"M$	c #6E81A1",
"N$	c #94908C",
"O$	c #989592",
"P$	c #9A9794",
"Q$	c #9B9895",
"R$	c #9E9B98",
"S$	c #757CB3",
"T$	c #A6A7C0",
"U$	c #A4A19E",
"V$	c #A3A09D",
"W$	c #A09E9A",
"X$	c #9E9B97",
"Y$	c #7689A9",
"Z$	c #3874D6",
"`$	c #9DA0A5",
" %	c #A19F9B",
".%	c #393837",
"+%	c #7C7A78",
"@%	c #8A8A89",
"#%	c #6880AA",
"$%	c #316DD1",
"%%	c #5477B2",
"&%	c #93918F",
"*%	c #9B958D",
"=%	c #99948F",
"-%	c #9B9792",
";%	c #9E9B95",
">%	c #9F9A94",
",%	c #9E9890",
"'%	c #949392",
")%	c #5578B4",
"!%	c #3972D3",
"~%	c #8092B1",
"{%	c #999794",
"]%	c #7A7875",
"^%	c #585756",
"/%	c #7F7D79",
"(%	c #908E8A",
"_%	c #7284A3",
":%	c #527ABE",
"<%	c #4A78C6",
"[%	c #4778CA",
"}%	c #4575C6",
"|%	c #4B7CCD",
"1%	c #507DC8",
"2%	c #5C81C0",
"3%	c #7D8CA7",
"4%	c #9B9791",
"5%	c #807F7B",
"6%	c #5B5958",
"7%	c #575554",
"8%	c #767472",
"9%	c #827E7A",
"0%	c #938D86",
"a%	c #979087",
"b%	c #99948D",
"c%	c #99948E",
"d%	c #979187",
"e%	c #938E86",
"f%	c #827F7B",
"g%	c #777573",
"h%	c #545351",
"i%	c #413F3F",
"j%	c #4A4A48",
"k%	c #4B4A48",
"l%	c #3F3D3C",
"                            . + @ #                             ",
"                    $ % & * = - ; > , ' ) !                     ",
"                ~ { ] ^ / ( _ : < [ } | 1 2 3 4                 ",
"            5 6 7 8 9 0 a b c d e c f g h i j k l               ",
"          $ m n o p q r s t 6 u v w s x y z A B C { D           ",
"        E F G H I J K L M 6 N O P w Q x x R S T U V x W         ",
"      X Y Z `  ...+.@.#.Y @.$.%.&.*.=.6 -.;.x Q >.,.'.).        ",
"      !.~.{.].^./.(._.:.:.<.[.}.|.1.2.).F M 3.4.w 5.6.7.8.      ",
"    9.0.a.b.c.d.e.d.f.g.h.i.j.k.l.m.n.o.p.q.r.r.r.s.t.u.v.w.    ",
"    x.y.z.A.B.C.D.E.F.G.H.I.J.K.L.M.N.O.P.Q.R.S.S.S.T.U.V.W.    ",
"  X.Y.Z.`. +.+++++++++++@+m.#+$+$+%+m.&+*+=+-+$+*+;+>+,+'+)+!+  ",
"  ~+{+]+^+/+(+m._+:+<+[+m.}+:+:+|+|+1+&.2+|+:+3+4+5+6+7+8+9+0+  ",
"  a+b+c+d+e+f+m.g+h+i+j+&.k+l+m+n+o+p+q+r+s+t+u+v+w+x+n+y+z+A+  ",
"  a+B+C+a+a+a+D+E+F+G+H+I+J+J+K+K+L+M+N+O+P+Q+R+S+T+U+V+a+W+a+  ",
"a+X+Y+Z+a+a+a+`+ @.@+@@@#@$@%@&@*@&@&@=@-@;@>@,@d+d+a+a+a+'@a+)@",
"a+!@~@a+a+a+a+a+{@]@^@/@(@_@:@<@[@}@|@1@2@3@4@5@a+a+a+a+a+6@a+7@",
"a+8@~@a+a+a+a+a+9@0@a@b@c@d@e@f@g@h@i@j@k@l@m@n@a+a+a+a+a+o@a+p@",
"a+q@r@s@a+a+a+a+t@u@v@@@w@x@w@&.y@h@z@a+A@B@5 C@a+a+a+a+a+D@a+E@",
"  e+F@G@H@`+a+I@J@K@L@M@N@O@O@P@Q@O@R@S@T@U@V@W@X@a+a+a+a+Y@a+  ",
"  Z@`@ #.#+#@###$#a+%#&#*#a+a+a+a+a+=#-#;#a+>#,#'#a+a+a+)#!#~#  ",
"  {#]#^#/#(#_#m.:#<#[#}#m.|#1#2#3#4#5#6#7#8#9#0#a#b#a+a+c#d#e#  ",
"  f#q.g#h#i#j#k#l#l#l#m#w@m.n#m#m#o#m.p#m#q#q#q#q#r#s#`+t#a+u#  ",
"    v#w#x#{ y#z#! A#B#C#D#|.E#F#W.G#W@H#I#J#K#L#M#N#O#P#Q#R#    ",
"    S#T#U#V#W#X#v#Y#{ ;.L Z#-@`# $m..$+${#@$#$$$%$&$*$=$-$;$    ",
"      >$,$'$)$!$~${$]$W#^$/$($_$:$<$[$^ w q.r.}$_.c.|$1$2$      ",
"        3$4$5$6$7$8$9$!$0$a$b$c$&.d$e$f$g$Y#^$h$i$j$k$-.        ",
"        l$m$n$o$p$q$r$s$t$u$v$w$x$y$z$A$B$!$C$D$E$F$G$H$        ",
"          I$J$K$L$M$N$O$P$Q$R$S$T$U$V$W$R$X$Y$Z$`$ %.%          ",
"              +%@%#%$%%%&%*%=%-%;%>%,%'%)%!%~%{%]%              ",
"                ^%/%(%_%:%<%[%}%}%|%1%2%3%4%5%6%                ",
"                    7%8%9%0%a%b%c%d%e%f%g%h%                    ",
"                            i%j%k%l%                            "};
